<svg width="226" height="90" viewBox="0 0 226 90" fill="none" xmlns="http://www.w3.org/2000/svg">
<g filter="url(#filter0_d_8_80)">
<rect x="17.7871" y="18" width="189.908" height="53.6314" rx="26.8157" fill="url(#paint0_linear_8_80)"/>
</g>
<path d="M45.2213 39.2144V37.1752H57.2631V39.2144H52.4335V52.7158H50.0724V39.2144H45.2213ZM59.474 52.7158V41.0604H61.7708V52.7158H59.474ZM59.1735 37.905C59.1842 37.1538 59.8389 36.5527 60.6331 36.5527C61.4166 36.5527 62.0713 37.1538 62.0713 37.905C62.0713 38.6563 61.4166 39.2681 60.6331 39.2573C59.8389 39.2681 59.1842 38.6563 59.1735 37.905ZM64.5612 52.7158V41.0604H66.7721V42.9708H66.9009C67.3946 41.6721 68.5429 40.9101 70.0777 40.9101C71.6339 40.9101 72.7179 41.6721 73.2116 42.9708H73.3403C73.8877 41.7151 75.1541 40.9101 76.8391 40.9101C78.9427 40.9101 80.4345 42.2302 80.4452 44.9026V52.7158H78.1485V45.1172C78.1485 43.5396 77.1611 42.8849 75.9591 42.8849C74.4887 42.8849 73.6409 43.8937 73.6409 45.289V52.7158H71.3656V44.9885C71.3656 43.7113 70.4962 42.8849 69.2405 42.8849C67.9527 42.8849 66.8579 43.9581 66.8579 45.5251V52.7158H64.5612ZM88.237 52.9519C84.8026 52.9519 82.6883 50.5801 82.699 46.9632C82.6883 43.3786 84.8348 40.9101 88.0867 40.9101C90.7377 40.9101 93.2598 42.5522 93.2598 46.77V47.5857H84.9743C85.0387 49.8073 86.3481 51.063 88.2585 51.063C89.5571 51.063 90.4049 50.5049 90.7913 49.7966H93.1095C92.5944 51.6855 90.802 52.9519 88.237 52.9519ZM84.9851 45.8685H91.006C91.006 44.0977 89.8576 42.7883 88.1082 42.799C86.273 42.7883 85.0817 44.2264 84.9851 45.8685ZM111.612 42.2409C111.237 40.234 109.573 39.1178 107.598 39.1285C104.915 39.1178 102.93 41.1784 102.919 44.9455C102.93 48.7341 104.926 50.7732 107.598 50.7625C109.552 50.7732 111.204 49.6785 111.612 47.693L113.995 47.7145C113.501 50.784 111.001 52.9305 107.577 52.9305C103.531 52.9305 100.579 49.9146 100.579 44.9455C100.579 39.9764 103.552 36.9606 107.577 36.9606C110.861 36.9606 113.469 38.9032 113.995 42.2409H111.612ZM115.819 49.4317C115.809 46.77 118.073 46.0832 120.177 45.9329C120.95 45.89 122.699 45.7934 123.236 45.7719L123.225 44.8382C123.236 43.5181 122.42 42.7561 120.864 42.7561C119.511 42.7561 118.696 43.3786 118.46 44.2372H116.184C116.388 42.3053 118.191 40.9101 120.95 40.9101C122.806 40.9101 125.511 41.5863 125.522 44.967V52.7158H123.289V51.1274H123.203C122.753 51.9967 121.679 52.9734 119.747 52.9734C117.537 52.9734 115.809 51.707 115.819 49.4317ZM118.052 49.4532C118.052 50.5693 118.975 51.1381 120.263 51.1489C122.13 51.1381 123.246 49.8932 123.246 48.5087L123.236 47.4462C122.71 47.4784 121.046 47.5964 120.499 47.6286C118.996 47.736 118.052 48.3048 118.052 49.4532ZM128.291 57.0947V41.0604H130.523V42.9493H130.716C131.124 42.2195 131.907 40.9101 134.065 40.9101C136.887 40.9101 138.959 43.121 138.959 46.9203C138.959 50.6767 136.909 52.9412 134.086 52.9519C131.972 52.9412 131.135 51.6533 130.716 50.8913H130.587V57.0947H128.291ZM130.544 46.8774C130.544 49.3244 131.618 50.9879 133.571 50.9986C135.589 50.9879 136.64 49.217 136.64 46.8774C136.64 44.5806 135.621 42.8527 133.571 42.8634C131.596 42.8527 130.544 44.4518 130.544 46.8774ZM147.781 44.2372C147.566 43.3142 146.836 42.7132 145.57 42.7132C144.26 42.7132 143.327 43.3893 143.337 44.2801C143.327 44.967 143.874 45.4607 145.162 45.7612L147.008 46.1905C149.154 46.6734 150.195 47.693 150.206 49.3458C150.195 51.4494 148.414 52.9519 145.441 52.9519C142.64 52.9519 140.987 51.707 140.697 49.539H143.037C143.241 50.5908 144.035 51.1167 145.42 51.106C146.901 51.1167 147.856 50.4942 147.867 49.5175C147.856 48.7663 147.298 48.2833 146.063 47.9935L144.239 47.6072C142.135 47.1457 141.041 46.0188 141.041 44.4089C141.041 42.3375 142.844 40.9101 145.548 40.9101C148.146 40.9101 149.766 42.2302 149.992 44.2372H147.781ZM159.844 47.8648V41.0604H162.119V52.7158H159.887V50.6981H159.758C159.221 51.9431 158.03 52.8661 156.281 52.8661C154.027 52.8661 152.439 51.3528 152.439 48.4658V41.0604H154.735V48.1867C154.735 49.7751 155.701 50.784 157.096 50.784C158.374 50.784 159.844 49.8503 159.844 47.8648ZM167.206 37.1752V52.7158H164.91V37.1752H167.206ZM175.02 52.9519C171.585 52.9519 169.471 50.5801 169.482 46.9632C169.471 43.3786 171.617 40.9101 174.869 40.9101C177.52 40.9101 180.042 42.5522 180.042 46.77V47.5857H171.757C171.821 49.8073 173.131 51.063 175.041 51.063C176.34 51.063 177.188 50.5049 177.574 49.7966H179.892C179.377 51.6855 177.585 52.9519 175.02 52.9519ZM171.768 45.8685H177.789C177.789 44.0977 176.64 42.7883 174.891 42.799C173.056 42.7883 171.864 44.2264 171.768 45.8685Z" fill="white"/>
<defs>
<filter id="filter0_d_8_80" x="0.203053" y="0.415943" width="225.076" height="88.7995" filterUnits="userSpaceOnUse" color-interpolation-filters="sRGB">
<feFlood flood-opacity="0" result="BackgroundImageFix"/>
<feColorMatrix in="SourceAlpha" type="matrix" values="0 0 0 0 0 0 0 0 0 0 0 0 0 0 0 0 0 0 127 0" result="hardAlpha"/>
<feOffset/>
<feGaussianBlur stdDeviation="8.79203"/>
<feComposite in2="hardAlpha" operator="out"/>
<feColorMatrix type="matrix" values="0 0 0 0 0.823529 0 0 0 0 0.580392 0 0 0 0 1 0 0 0 1 0"/>
<feBlend mode="normal" in2="BackgroundImageFix" result="effect1_dropShadow_8_80"/>
<feBlend mode="normal" in="SourceGraphic" in2="effect1_dropShadow_8_80" result="shape"/>
</filter>
<linearGradient id="paint0_linear_8_80" x1="112.741" y1="18" x2="112.741" y2="71.6314" gradientUnits="userSpaceOnUse">
<stop stop-color="#CE98CA"/>
<stop offset="1" stop-color="#A375D7"/>
</linearGradient>
</defs>
</svg>
