<svg width="170" height="68" viewBox="0 0 170 68" fill="none" xmlns="http://www.w3.org/2000/svg">
<g filter="url(#filter0_d_14_2263)">
<rect x="14" y="14" width="141.908" height="40.0758" rx="20.0379" fill="white"/>
</g>
<path d="M60.6484 27.3281V34.6094H59.1797V32.9375H56.1172V34.0938H49.6641V27.9688H51.1484V29.8594H54.6484V27.9688H56.1172V29.25H59.1797V27.3281H60.6484ZM51.1484 32.9062H54.6484V31H51.1484V32.9062ZM51.4922 36.3906V35.2344H60.6484V38.6719H53.0078V39.9688H61.1484V41.1562H51.5234V37.5625H59.1797V36.3906H51.4922ZM56.1172 31.7969H59.1797V30.3906H56.1172V31.7969ZM67.6953 31.4531C67.6875 33.6641 69.1484 36.1328 71.2734 37.1406L70.4297 38.2969C68.8594 37.5469 67.6094 35.9688 66.9766 34.1406C66.3359 36.1328 65.0234 37.8594 63.4297 38.6562L62.5547 37.4844C64.6797 36.4609 66.2188 33.8203 66.2266 31.4531V29.9688H63.0703V28.7344H70.7422V29.9688H67.6953V31.4531ZM72.2422 41.3281V27.3281H73.7266V32.875H75.9766V34.125H73.7266V41.3281H72.2422ZM88.2734 27.3281V41.3594H86.7891V27.3281H88.2734ZM77.4297 29.7969V28.5938H83.9922V33.7031H78.9609V36.7656C81.2344 36.7578 83.2109 36.6484 85.5547 36.2656L85.6953 37.4844C83.2188 37.8984 81.1094 37.9922 78.6328 38H77.4453V32.5156H82.4766V29.7969H77.4297ZM107.164 33.9062V35.125H94.3828V33.9062H107.164ZM95.8984 38.7656C95.8984 37.1406 97.7188 36.2188 100.758 36.2188C103.773 36.2188 105.578 37.1406 105.586 38.7656C105.578 40.3906 103.773 41.3047 100.758 41.2969C97.7188 41.3047 95.8984 40.3906 95.8984 38.7656ZM95.9766 32.6875V27.8281H105.586V29.0469H97.4453V31.4844H105.68V32.6875H95.9766ZM97.3984 38.7656C97.3906 39.6641 98.6172 40.1484 100.758 40.1562C102.867 40.1484 104.102 39.6641 104.102 38.7656C104.102 37.875 102.867 37.375 100.758 37.3594C98.6172 37.375 97.3906 37.875 97.3984 38.7656ZM121.008 34.9688V36.1719H108.195V34.9688H113.867V33.6406H109.836V30.0781H117.914V28.8281H109.805V27.6562H119.398V31.1719H111.305V32.4844H119.68V33.6406H115.336V34.9688H121.008ZM109.633 38.3438V37.1562H119.477V41.2188H117.977V38.3438H109.633Z" fill="black"/>
<defs>
<filter id="filter0_d_14_2263" x="0.86039" y="0.86039" width="168.187" height="66.3549" filterUnits="userSpaceOnUse" color-interpolation-filters="sRGB">
<feFlood flood-opacity="0" result="BackgroundImageFix"/>
<feColorMatrix in="SourceAlpha" type="matrix" values="0 0 0 0 0 0 0 0 0 0 0 0 0 0 0 0 0 0 127 0" result="hardAlpha"/>
<feOffset/>
<feGaussianBlur stdDeviation="6.56981"/>
<feComposite in2="hardAlpha" operator="out"/>
<feColorMatrix type="matrix" values="0 0 0 0 0.823529 0 0 0 0 0.580392 0 0 0 0 1 0 0 0 1 0"/>
<feBlend mode="normal" in2="BackgroundImageFix" result="effect1_dropShadow_14_2263"/>
<feBlend mode="normal" in="SourceGraphic" in2="effect1_dropShadow_14_2263" result="shape"/>
</filter>
</defs>
</svg>
